# xmcd
#
# Track frame offsets: 
#        150
#        11022
#        32712
#        46715
#        62142
#        74665
#        85775
#        94657
#        105505
#        117672
#        130582
#        142215
#
# Disc length: 2059 seconds
#
# Revision: 0
# Processed by: cddbd v1.5.2PL0 Copyright (c) Steve Scherf et al.
# Submitted via: ExactAudioCopy v0.99pb5
#
DISCID=a508090c
DTITLE=James Brown and The Famous Flames - Cold Sweat
DYEAR=1967
DGENRE=R&B
TTITLE0=Cold Sweat Part 1
TTITLE1=Cold Sweat Part 2
TTITLE2=Fever
TTITLE3=Kansas City
TTITLE4=Stagger Lee
TTITLE5=Good Rockin' Tonight
TTITLE6=Mona Lisa
TTITLE7=I Want To Be Around
TTITLE8=Nature Boy
TTITLE9=Come Rain Or Come Shine
TTITLE10=I Loves You Porgy
TTITLE11=Back Stabbin'
EXTD=
EXTT0=
EXTT1=
EXTT2=
EXTT3=
EXTT4=
EXTT5=
EXTT6=
EXTT7=
EXTT8=
EXTT9=
EXTT10=
EXTT11=
PLAYORDER=
